<svg xmlns="http://www.w3.org/2000/svg" viewBox="0 0 64 64">
  <defs>
    <linearGradient id="d20face" x1="0" y1="0" x2="1" y2="1">
      <stop offset="0%" stop-color="#7aa2f7"/>
      <stop offset="100%" stop-color="#4166b8"/>
    </linearGradient>
    <linearGradient id="d20edge" x1="0" y1="0" x2="0" y2="1">
      <stop offset="0%" stop-color="#2a3f6e"/>
      <stop offset="100%" stop-color="#16233f"/>
    </linearGradient>
  </defs>

  <!-- Outer hex silhouette (d20 profile) -->
  <polygon points="32,3 57,17.5 57,46.5 32,61 7,46.5 7,17.5" fill="url(#d20edge)"/>

  <!-- Top face -->
  <polygon points="32,9 50,20 32,31 14,20" fill="url(#d20face)"/>
  <!-- Lower-left face -->
  <polygon points="14,20 32,31 26,52 11,44" fill="#5c85d6"/>
  <!-- Lower-right face -->
  <polygon points="50,20 53,44 38,52 32,31" fill="#3d63ad"/>

  <!-- Face edges -->
  <g stroke="#0e1830" stroke-width="1.5" stroke-linejoin="round" fill="none">
    <polygon points="32,9 50,20 32,31 14,20"/>
    <polyline points="14,20 11,44 26,52 38,52 53,44 50,20"/>
    <polyline points="26,52 32,31 38,52"/>
  </g>

  <!-- Spark: critical-hit star on the top face -->
  <g fill="#ffffff">
    <path d="M32 13 L34.2 19.8 L41 22 L34.2 24.2 L32 31 L29.8 24.2 L23 22 L29.8 19.8 Z" opacity="0.95"/>
  </g>
</svg>
